<?xml version="1.0" encoding="UTF-8" ?>
<svg width="33px" height="19px" viewBox="0 0 33 19" version="1.1" xmlns="http://www.w3.org/2000/svg" xmlns:xlink="http://www.w3.org/1999/xlink" >
        <path d="M14.326,4.41754545 L15.0724,4.41754545 L14.9576,0.424 L0.1624,0.424 L0.1624,1.10922727 C0.6344,1.135 0.992,1.171 1.2344,1.21681818 C1.4768,1.26263636 1.6936,1.36368182 1.8852,1.52036364 C2.0768,1.67704545 2.204,1.89222727 2.268,2.16631818 C2.3316,2.44040909 2.3636,2.81881818 2.3636,3.30154545 L2.3636,15.6532273 C2.3636,16.1359545 2.3316,16.5110909 2.268,16.777 C2.204,17.0445455 2.0764,17.2601364 1.8852,17.416 C1.6936,17.5726818 1.4704,17.6774091 1.2152,17.7293636 C0.96,17.7817273 0.5964,17.8144545 0.124,17.8271364 L0.124,18.532 L8.5072,18.532 L8.5072,17.8271364 C7.92,17.8144545 7.48,17.7817273 7.1864,17.7293636 C6.8928,17.6774091 6.6376,17.5726818 6.4208,17.416 C6.204,17.2597273 6.0636,17.0445455 5.9996,16.777 C5.9356,16.5110909 5.904,16.1359545 5.904,15.6532273 L5.904,9.74145455 L7.2248,9.74145455 C8.4116,9.74145455 9.2792,9.92718182 9.8276,10.2994545 C10.3764,10.6709091 10.74,11.3725 10.9188,12.4038182 L11.5888,12.4038182 L11.5888,6.00277273 L10.9188,6.00277273 C10.804,6.66836364 10.6348,7.16459091 10.4116,7.49063636 C10.1884,7.81709091 9.8344,8.05190909 9.3492,8.1955 C8.8644,8.3395 8.1564,8.41109091 7.2248,8.41109091 L5.904,8.41109091 L5.904,2.67522727 C5.904,2.3095 5.968,2.06527273 6.0956,1.94131818 C6.2232,1.81695455 6.4848,1.75518182 6.8804,1.75518182 L9.56,1.75518182 C10.4404,1.75518182 11.1488,1.79445455 11.6848,1.87259091 C12.2208,1.95072727 12.664,2.10413636 13.0152,2.33281818 C13.366,2.56109091 13.6308,2.82863636 13.8092,3.13504545 C13.988,3.44186364 14.16,3.86936364 14.326,4.41754545 L14.326,4.41754545 L14.326,4.41754545 Z M31.1688,4.41754545 L32.0684,4.41754545 L31.7048,0.424 L16.1828,0.424 L15.8192,4.41754545 L16.7188,4.41754545 C16.9996,3.43859091 17.382,2.7505 17.8672,2.35204545 C18.352,1.954 19.06,1.75518182 19.992,1.75518182 L22.1736,1.75518182 L22.1736,15.6536364 C22.1736,16.1363636 22.142,16.5115 22.078,16.7774091 C22.0144,17.0449545 21.8772,17.2605455 21.6668,17.4164091 C21.4564,17.5730909 21.2104,17.6778182 20.9296,17.7297727 C20.6492,17.7821364 20.2344,17.8148636 19.686,17.8275455 L19.686,18.5324091 L28.2224,18.5324091 L28.2224,17.8275455 C27.6736,17.8148636 27.2556,17.7821364 26.9684,17.7297727 C26.6812,17.6778182 26.4324,17.5730909 26.222,17.4164091 C26.0116,17.2601364 25.8744,17.0449545 25.8108,16.7774091 C25.7472,16.5115 25.7152,16.1363636 25.7152,15.6536364 L25.7152,1.75518182 L27.8972,1.75518182 C28.8284,1.75518182 29.5368,1.954 30.0216,2.35204545 C30.5056,2.75009091 30.8884,3.43859091 31.1688,4.41754545 L31.1688,4.41754545 L31.1688,4.41754545 Z" id="ft-logo" fill="#E4D7CC" ></path>
</svg>